<svg xmlns="http://www.w3.org/2000/svg" viewBox="0 0 64 64" fill="none">
  <defs>
    <linearGradient id="lmGrad" x1="0" y1="0" x2="1" y2="1">
      <stop offset="0%" stop-color="#FB923C"></stop>
      <stop offset="100%" stop-color="#EA580C"></stop>
    </linearGradient>
  </defs>
  <path d="M12 10h32a10 10 0 0 1 10 10v20a10 10 0 0 1-10 10H30l-12 10v-10h-6a10 10 0 0 1-10-10V20a10 10 0 0 1 10-10z" fill="url(#lmGrad)"></path>
  <path d="M22 38l8-18h4l8 18h-4l-2-5h-8l-2 5h-4zm7-8h6l-3-7-3 7z" fill="#FFFFFF"></path>
</svg>